
<svg xmlns="http://www.w3.org/2000/svg" version="1.1" xmlns:xlink="http://www.w3.org/1999/xlink" xmlns:svgjs="http://svgjs.dev/svgjs" width="2000" height="469" viewBox="0 0 2000 469"><g transform="matrix(1,0,0,1,-1.2112696095522324,0.8487149178981213)"><svg viewBox="0 0 396 93" data-background-color="#ffffff" preserveAspectRatio="xMidYMid meet" height="469" width="2000" xmlns="http://www.w3.org/2000/svg" xmlns:xlink="http://www.w3.org/1999/xlink"><g id="tight-bounds" transform="matrix(1,0,0,1,0.24008861730862918,-0.16815172430241887)"><svg viewBox="0 0 395.52 93.33634519469405" height="93.33634519469405" width="395.52"><g><svg viewBox="0 0 395.52 93.33634519469405" height="93.33634519469405" width="395.52"><g><svg viewBox="0 0 395.52 93.33634519469405" height="93.33634519469405" width="395.52"><g id="textblocktransform"><svg viewBox="0 0 395.52 93.33634519469405" height="93.33634519469405" width="395.52" id="textblock"><g><svg viewBox="0 0 395.52 93.33634519469405" height="93.33634519469405" width="395.52"><path d="M394.594 20.019C392.735 10.331 387.435 7.637 387.435 7.637 371.165-2.342 350.86-0.191 332.619 1.243 300.414 1.301 268.339 3.433 236.208 4.576 168.767 4.75 100.749 1.882 33.643 8.955 27.339 11.125-6.54 9.381 1.121 21.259 3.129 26.2 10.456 31.684 10.232 36.218 11.236 37.012 12.631 35.191 13.226 36.334 15.309 39.415 18.711 37.962 21.501 39.783 17.614 44.646 20.403 48.696 23.062 52.94 18.377 54.044 12.371 53.521 9.675 57.183 9.396 59.838 7.89 59.334 6.235 59.218 5.026 59.14 2.59 59.431 2.999 60.264 4.394 63.112-1.594 64.759 2.162 67.55-0.422 70.572 3.948 73.188 3.353 76.463 3.278 77.122 3.687 77.684 4.338 77.839 7.22 78.672 3.018 80.299 3.464 82.063 33.029 94.115 65.104 85.783 95.394 91.325 103.259 87.449 97.346 92.7 100.489 91.887 102.943 90.937 104.728 94.871 107.499 92.642 107.927 92.003 107.276 90.491 108.8 90.782 109.6 90.937 110.307 90.898 110.418 90.007 110.586 88.67 109.117 89.503 108.726 88.806 112.947 85.279 111.906 93.669 115.866 93.32 115.68 92.293 114.528 90.821 116.889 91.015 119.232 89.542 119.306 88.321 121.389 91.635 121.463 92.352 121.835 92.855 122.43 93.204 128.938 89.6 135.409 94.483 142.233 92.855 146.417 91.073 150.433 93.824 154.672 93.146 156.16 92.603 157.666 91.635 159.098 93.262 176.632 93.611 195.319 92.158 211.943 93.32 256.364 91.15 303.836 94.212 350.674 91.344 361.719 90.24 373.192 88.67 383.958 87.411 383.958 87.411 392.679 83.962 392.679 68.46S394.538 54.897 394.817 42.554C395.096 30.211 396.398 29.707 394.538 20.019Z" opacity="1" fill="#000000" data-fill-palette-color="tertiary"></path><g transform="matrix(1,0,0,1,55.76832,26.230666666666668)"><svg width="283.98335999999995" viewBox="2.15 -35 311.58000000000004 44.85" height="40.87501186136071" data-palette-color="#ffffff"><path d="M18.15-35Q24.75-35 29-32.33 33.25-29.65 33.35-24.4L33.35-24.4 33.35-23.8 23-23.8 23-24Q23-25.5 21.9-26.5 20.8-27.5 18.55-27.5L18.55-27.5Q16.35-27.5 15.18-26.85 14-26.2 14-25.25L14-25.25Q14-23.9 15.6-23.25 17.2-22.6 20.75-21.9L20.75-21.9Q24.9-21.05 27.58-20.13 30.25-19.2 32.25-17.1 34.25-15 34.3-11.4L34.3-11.4Q34.3-5.3 30.18-2.35 26.05 0.6 19.15 0.6L19.15 0.6Q11.1 0.6 6.63-2.1 2.15-4.8 2.15-11.65L2.15-11.65 12.6-11.65Q12.6-9.05 13.95-8.18 15.3-7.3 18.15-7.3L18.15-7.3Q20.25-7.3 21.63-7.75 23-8.2 23-9.6L23-9.6Q23-10.85 21.48-11.48 19.95-12.1 16.5-12.8L16.5-12.8Q12.3-13.7 9.55-14.68 6.8-15.65 4.75-17.9 2.7-20.15 2.7-24L2.7-24Q2.7-29.65 7.08-32.33 11.45-35 18.15-35L18.15-35ZM56.5-27Q61.85-27 64.75-23.5 67.65-20 67.65-13.15L67.65-13.15Q67.65-6.35 64.75-2.88 61.85 0.6 56.5 0.6L56.5 0.6Q51.9 0.6 49.1-2.4L49.1-2.4 49.1 9.85 39.15 9.85 39.15-26.4 47.25-26.4 48.1-22.65Q51-27 56.5-27L56.5-27ZM53.4-19.65Q51.2-19.65 50.1-18.1 49-16.55 49-14.05L49-14.05 49-12.4Q49-9.9 50.1-8.33 51.2-6.75 53.4-6.75L53.4-6.75Q57.7-6.75 57.7-11.9L57.7-11.9 57.7-14.55Q57.7-19.65 53.4-19.65L53.4-19.65ZM86.1-27Q93.05-27 97.02-23.48 101-19.95 101-13.2L101-13.2Q101-6.45 97.02-2.93 93.05 0.6 86.1 0.6L86.1 0.6Q79.15 0.6 75.2-2.9 71.25-6.4 71.25-13.2L71.25-13.2Q71.25-20 75.2-23.5 79.15-27 86.1-27L86.1-27ZM86.1-20.25Q81.2-20.25 81.2-14.6L81.2-14.6 81.2-11.75Q81.2-6.15 86.1-6.15L86.1-6.15Q91.05-6.15 91.05-11.75L91.05-11.75 91.05-14.6Q91.05-20.25 86.1-20.25L86.1-20.25ZM121.84-27.05Q122.99-27.05 123.89-26.78 124.79-26.5 124.79-26.45L124.79-26.45 124.79-18.1 121.59-18.1Q118.49-18.1 117.12-16.5 115.74-14.9 115.74-11.75L115.74-11.75 115.74 0 105.79 0 105.79-26.4 113.94-26.4 114.59-22.4Q115.49-24.7 117.44-25.88 119.39-27.05 121.84-27.05L121.84-27.05ZM142.49-26.4L148.09-26.4 148.09-19.65 142.49-19.65 142.49-9.6Q142.49-7.8 143.09-6.98 143.69-6.15 145.29-6.15L145.29-6.15 148.09-6.15 148.09-0.3Q146.89 0.1 144.99 0.35 143.09 0.6 141.69 0.6L141.69 0.6Q137.29 0.6 134.92-1 132.54-2.6 132.54-6.45L132.54-6.45 132.54-19.65 128.84-19.65 128.84-26.4 132.94-26.4 135.09-34.4 142.49-34.4 142.49-26.4ZM172.69-34.4Q175.89-34.4 178.39-32.93 180.89-31.45 182.29-28.88 183.69-26.3 183.69-23.1L183.69-23.1 183.69-22.45Q183.69-19.25 182.29-16.65 180.89-14.05 178.39-12.58 175.89-11.1 172.69-11.1L172.69-11.1 164.44-11.1 164.44 0 153.39 0 153.39-34.4 172.69-34.4ZM164.44-26.25L164.44-19.15 168.99-19.15Q170.74-19.15 171.61-20.05 172.49-20.95 172.49-22.5L172.49-22.5 172.49-22.9Q172.49-24.5 171.61-25.38 170.74-26.25 168.99-26.25L168.99-26.25 164.44-26.25ZM200.99-27Q207.04-27 210.84-24.98 214.64-22.95 214.64-18.4L214.64-18.4 214.64-8.1Q214.64-7.25 215.04-6.7 215.44-6.15 216.24-6.15L216.24-6.15 218.04-6.15 218.04-0.4Q217.89-0.3 217.26-0.08 216.64 0.15 215.49 0.38 214.34 0.6 212.84 0.6L212.84 0.6Q209.94 0.6 208.06-0.28 206.19-1.15 205.49-2.7L205.49-2.7Q203.59-1.2 201.24-0.3 198.89 0.6 195.74 0.6L195.74 0.6Q186.44 0.6 186.44-6.8L186.44-6.8Q186.44-10.65 188.51-12.68 190.59-14.7 194.49-15.45 198.39-16.2 204.69-16.2L204.69-16.2 204.69-17.5Q204.69-19.05 203.61-19.85 202.54-20.65 200.84-20.65L200.84-20.65Q199.29-20.65 198.16-20.1 197.04-19.55 197.04-18.35L197.04-18.35 197.04-18.15 187.24-18.15Q187.19-18.4 187.19-18.85L187.19-18.85Q187.19-22.6 190.76-24.8 194.34-27 200.99-27L200.99-27ZM204.69-11.5Q200.44-11.5 198.41-10.58 196.39-9.65 196.39-8.1L196.39-8.1Q196.39-5.6 199.79-5.6L199.79-5.6Q201.74-5.6 203.21-6.65 204.69-7.7 204.69-9.25L204.69-9.25 204.69-11.5ZM248.58 0L240.43 0 239.78-4Q238.23-1.85 235.71-0.63 233.18 0.6 230.38 0.6L230.38 0.6Q225.78 0.6 223.48-1.95 221.18-4.5 221.18-9.3L221.18-9.3 221.18-26.4 231.13-26.4 231.13-10.5Q231.13-8.8 232.01-7.78 232.88-6.75 234.48-6.75L234.48-6.75Q236.33-6.75 237.48-7.95 238.63-9.15 238.63-10.9L238.63-10.9 238.63-26.4 248.58-26.4 248.58 0ZM267.18-27Q272.48-27 276.16-24.93 279.83-22.85 279.83-18.5L279.83-18.5 270.58-18.5Q270.58-19.95 269.28-20.55L269.28-20.55Q268.38-21.05 267.03-21.05L267.03-21.05Q263.43-21.05 263.43-19.35L263.43-19.35Q263.43-18.4 264.68-18 265.93-17.6 268.78-17.15L268.78-17.15Q272.28-16.65 274.63-15.98 276.98-15.3 278.73-13.58 280.48-11.85 280.48-8.75L280.48-8.75Q280.48-3.7 276.71-1.55 272.93 0.6 266.83 0.6L266.83 0.6Q263.33 0.6 260.23-0.38 257.13-1.35 255.18-3.4 253.23-5.45 253.23-8.6L253.23-8.6 262.48-8.6 262.48-8.4Q262.53-6.7 263.91-6.03 265.28-5.35 266.83-5.35L266.83-5.35Q270.98-5.35 270.98-7.3L270.98-7.3Q270.98-8.3 269.68-8.75 268.38-9.2 265.43-9.7L265.43-9.7Q261.88-10.3 259.61-11 257.33-11.7 255.63-13.38 253.93-15.05 253.93-18.05L253.93-18.05Q253.93-22.9 257.61-24.95 261.28-27 267.18-27L267.18-27ZM298.83-27Q306.08-27 309.9-23.6 313.73-20.2 313.73-13.2L313.73-13.2 313.73-11.5 293.93-11.5Q293.93-8.65 295.2-7.2 296.48-5.75 299.23-5.75L299.23-5.75Q301.73-5.75 302.9-6.8 304.08-7.85 304.08-9.6L304.08-9.6 313.73-9.6Q313.73-4.8 310.08-2.1 306.43 0.6 299.43 0.6L299.43 0.6Q292.08 0.6 288.03-2.83 283.98-6.25 283.98-13.2L283.98-13.2Q283.98-20 287.93-23.5 291.88-27 298.83-27L298.83-27ZM299.23-20.65Q294.53-20.65 293.98-16.2L293.98-16.2 303.68-16.2Q303.68-18.25 302.5-19.45 301.33-20.65 299.23-20.65L299.23-20.65Z" opacity="1" transform="matrix(1,0,0,1,0,0)" fill="#ffffff" class="wordmark-text-0" data-fill-palette-color="quaternary" id="text-0"></path></svg></g></svg></g></svg></g></svg></g><g></g></svg></g><defs></defs></svg><rect width="395.52" height="93.33634519469405" fill="none" stroke="none" visibility="hidden"></rect></g></svg></g></svg>
