<?xml version="1.0" standalone="no"?>
<!DOCTYPE svg PUBLIC "-//W3C//DTD SVG 20010904//EN"
 "http://www.w3.org/TR/2001/REC-SVG-20010904/DTD/svg10.dtd">
<svg version="1.0" xmlns="http://www.w3.org/2000/svg"
 width="2000.000000pt" height="555.000000pt" viewBox="0 0 2000.000000 555.000000"
 preserveAspectRatio="xMidYMid meet">

<g transform="translate(0.000000,555.000000) scale(0.100000,-0.100000)"
fill="#000000" stroke="none">
<path d="M12420 5524 c-19 -8 -48 -25 -65 -38 -29 -22 -37 -23 -335 -29 -168
-4 -361 -11 -430 -17 -912 -75 -1504 -280 -1718 -592 -123 -179 -60 -381 142
-457 202 -75 552 -29 828 110 105 53 237 162 238 197 0 23 -33 12 -88 -29
-113 -86 -320 -155 -538 -180 -268 -32 -467 83 -424 243 9 30 29 59 73 103
296 293 1057 500 1955 531 l203 7 -10 -24 c-24 -63 -177 -411 -241 -549 -97
-208 -225 -460 -306 -600 -36 -63 -164 -292 -285 -508 -298 -537 -420 -716
-601 -888 -266 -251 -564 -363 -931 -351 -158 5 -205 15 -306 66 -91 47 -177
169 -202 289 -16 79 -6 248 21 342 58 204 220 440 398 582 146 116 296 171
467 171 123 0 190 -23 264 -89 142 -128 142 -346 -1 -583 -72 -120 -40 -124
67 -9 146 158 225 302 225 413 0 24 -9 73 -21 110 -61 197 -315 291 -652 240
-243 -36 -479 -165 -639 -347 -190 -217 -283 -424 -295 -658 -9 -195 39 -333
162 -456 131 -132 288 -184 561 -184 262 -1 462 44 678 152 251 125 408 266
635 571 125 167 425 592 459 650 19 32 12 32 142 -8 131 -40 249 -56 455 -62
295 -8 540 27 825 119 411 133 684 314 853 566 284 425 123 744 -481 953 -213
73 -467 125 -768 156 l-164 17 0 26 c0 56 -73 77 -150 44z m395 -190 c556 -60
967 -236 1075 -460 86 -177 -22 -413 -294 -642 -174 -145 -382 -260 -618 -341
-444 -152 -841 -186 -1128 -99 -36 11 -66 21 -68 23 -1 1 48 83 109 181 316
506 460 790 565 1113 41 124 76 232 79 239 5 15 19 14 280 -14z"/>
<path d="M2700 5450 c-371 -35 -736 -155 -990 -325 -197 -132 -310 -248 -383
-394 -42 -84 -42 -85 -42 -195 0 -103 2 -115 29 -165 56 -107 173 -206 313
-265 75 -31 135 -47 553 -141 375 -85 407 -94 503 -142 127 -63 198 -150 199
-243 0 -70 -10 -105 -53 -191 -103 -207 -283 -378 -529 -503 -389 -200 -870
-285 -1297 -231 l-118 15 -61 65 c-63 67 -128 179 -157 270 -21 66 -30 122
-71 427 -38 284 -53 333 -117 376 -30 21 -43 23 -104 20 -87 -6 -141 -32 -211
-104 -111 -113 -162 -284 -131 -436 21 -103 67 -210 137 -315 130 -197 280
-289 583 -357 92 -20 110 -28 180 -79 132 -95 257 -147 358 -147 48 0 85 18
78 39 -3 7 -56 29 -118 47 -99 31 -241 87 -241 96 0 2 35 0 78 -4 367 -33 861
25 1187 139 453 159 739 405 850 732 71 211 48 379 -70 497 -114 114 -267 170
-685 248 -371 70 -454 90 -559 132 -140 56 -233 129 -267 210 -20 47 -17 135
5 194 57 150 245 326 467 438 255 128 660 201 966 174 305 -28 477 -117 539
-280 51 -137 30 -254 -63 -337 -59 -53 -112 -70 -243 -80 -90 -7 -135 -18
-135 -32 1 -58 149 -63 310 -11 164 52 269 135 310 246 30 79 25 223 -10 297
-30 62 -118 151 -190 192 -76 43 -217 89 -329 107 -120 20 -349 27 -471 16z
m-2343 -1751 c7 -15 26 -104 43 -199 60 -347 136 -549 271 -719 22 -29 39 -54
37 -56 -1 -2 -30 8 -63 22 -178 75 -329 228 -404 408 -67 160 -78 374 -26 481
45 92 114 122 142 63z"/>
<path d="M8535 4498 c-33 -35 -104 -120 -158 -190 l-98 -128 -148 0 c-138 0
-150 -2 -182 -23 -48 -32 -63 -68 -49 -112 17 -53 57 -69 147 -62 l74 6 -19
-32 c-11 -18 -75 -140 -142 -272 -109 -212 -132 -250 -197 -322 -147 -163
-355 -323 -528 -407 -124 -61 -177 -76 -265 -76 -110 0 -159 37 -181 137 -11
47 -10 68 3 132 32 156 123 306 392 645 91 115 166 218 166 229 0 10 -17 37
-39 58 -48 49 -79 50 -147 8 -112 -72 -165 -93 -235 -93 -54 -1 -73 3 -96 20
-48 35 -42 58 45 175 93 126 122 183 122 243 0 36 -5 48 -26 65 -31 24 -83 27
-122 7 -65 -34 -117 -117 -166 -267 -59 -181 -205 -403 -485 -739 -118 -141
-146 -183 -137 -206 10 -27 32 -14 107 64 97 99 189 210 373 449 81 106 151
195 156 198 5 3 16 -7 24 -23 8 -16 33 -45 55 -65 36 -32 52 -39 128 -50 7 -1
-7 -31 -33 -72 -161 -247 -258 -543 -239 -725 18 -172 95 -263 243 -290 199
-35 500 111 790 385 50 48 92 83 92 78 0 -4 -7 -42 -16 -83 -28 -133 -3 -263
62 -324 40 -37 140 -66 229 -66 318 0 713 201 1013 515 148 154 203 239 164
252 -6 3 -78 -60 -160 -139 -141 -138 -283 -259 -385 -327 -68 -46 -255 -134
-367 -172 -83 -28 -109 -33 -200 -33 -116 -1 -153 12 -194 67 -28 38 -27 138
3 227 50 147 237 481 388 691 97 135 65 122 408 169 455 61 634 88 705 106
141 36 115 39 -365 44 l-458 5 53 60 c69 79 150 194 150 214 0 30 -32 63 -84
87 -81 38 -101 34 -171 -38z"/>
<path d="M18218 4452 c-85 -68 -662 -606 -841 -785 -67 -68 -178 -183 -247
-257 -238 -257 -410 -403 -574 -485 -100 -51 -138 -56 -160 -22 -39 61 -24
167 41 289 47 87 238 343 430 576 179 217 190 236 177 288 -12 48 -50 76 -113
82 -41 4 -58 0 -93 -21 -61 -35 -232 -215 -378 -397 -350 -436 -478 -575 -671
-731 -77 -63 -154 -105 -224 -124 -53 -13 -61 -13 -83 1 -23 15 -24 21 -20 83
3 40 18 98 37 148 74 190 355 593 590 845 88 95 97 120 58 156 -49 46 -145 38
-230 -19 -44 -29 -226 -232 -486 -542 -354 -424 -586 -627 -715 -627 -52 0
-81 20 -96 66 -37 110 37 275 290 654 165 247 220 337 220 359 0 23 -61 78
-95 87 -14 3 -41 3 -60 0 -34 -7 -36 -5 -51 31 -28 70 -38 85 -79 108 -54 32
-117 39 -211 25 -249 -38 -500 -202 -800 -522 -226 -242 -338 -452 -339 -638
0 -76 3 -91 30 -138 36 -65 71 -96 153 -135 90 -42 165 -42 248 0 95 49 208
139 367 293 80 77 147 140 150 140 2 0 0 -24 -5 -52 -12 -63 -4 -163 15 -210
34 -81 129 -152 220 -164 143 -20 395 166 665 493 51 61 108 123 128 138 l35
26 -52 -78 c-112 -171 -166 -325 -155 -435 27 -270 263 -278 579 -20 40 33
141 130 224 216 l152 156 -25 -87 c-42 -147 -58 -253 -44 -301 14 -53 59 -105
114 -131 62 -30 174 -29 241 3 92 43 245 166 494 398 52 49 98 85 102 81 3 -5
16 -42 28 -83 31 -105 103 -248 151 -298 68 -70 128 -95 243 -100 161 -7 248
17 387 108 51 33 96 54 140 64 118 27 258 83 335 134 l74 50 -6 -57 c-7 -73
16 -155 60 -212 56 -73 200 -139 304 -139 213 0 557 203 863 510 123 122 226
243 254 299 16 29 16 35 3 48 -22 22 -44 6 -128 -94 -195 -233 -517 -506 -710
-603 -145 -73 -263 -88 -352 -46 -98 48 -124 227 -56 387 l21 47 76 0 c130 1
286 56 502 174 265 146 411 303 427 462 7 70 -9 117 -57 160 -118 107 -354 59
-595 -121 -193 -144 -428 -413 -529 -604 -41 -77 -57 -97 -108 -134 -123 -91
-253 -148 -368 -161 -58 -6 -62 -6 -56 12 13 45 49 208 101 469 96 483 124
569 232 713 42 54 75 110 79 129 13 69 -39 123 -119 123 -28 0 -51 -12 -109
-58z m-149 -373 c-41 -392 -127 -787 -204 -939 -50 -97 -113 -132 -240 -134
-96 0 -150 20 -219 84 -68 63 -100 137 -101 230 0 54 5 85 19 110 53 100 275
345 481 534 122 111 265 229 271 223 2 -2 -1 -51 -7 -108z m-3220 -3 c63 -33
69 -21 -175 -358 -321 -444 -482 -627 -657 -752 -130 -92 -258 -123 -305 -73
-61 66 -56 188 14 335 119 248 557 668 837 801 119 57 231 75 286 47z m4777
-77 c44 -36 -23 -175 -141 -295 -169 -170 -462 -324 -619 -324 -34 0 -46 4
-46 15 0 29 150 213 266 325 166 161 293 256 387 286 46 15 131 11 153 -7z"/>
<path d="M5721 4240 c-91 -33 -180 -99 -311 -230 -252 -252 -476 -578 -540
-785 -23 -76 -28 -186 -11 -243 24 -81 102 -174 156 -188 13 -3 66 -4 117 -2
79 2 103 8 160 35 131 62 275 191 435 391 168 209 260 367 270 466 l5 51 129
63 c113 55 211 123 197 137 -3 3 -34 -8 -69 -24 -79 -35 -161 -53 -206 -45
l-34 6 8 57 c19 135 0 235 -55 284 -53 48 -161 59 -251 27z m33 -366 c16 -26
54 -72 84 -102 49 -51 53 -59 48 -90 -13 -85 -121 -253 -282 -441 -187 -219
-327 -321 -446 -323 -78 -2 -108 40 -108 154 0 60 6 86 33 149 99 226 401 594
548 668 34 17 69 31 78 31 9 0 29 -21 45 -46z"/>
<path d="M3924 4079 c-124 -79 -344 -349 -621 -764 -203 -305 -345 -564 -410
-750 -25 -72 -28 -94 -28 -210 0 -104 4 -140 19 -180 50 -131 162 -223 206
-169 11 13 7 28 -26 96 -37 77 -39 84 -38 177 1 80 6 112 33 193 47 144 183
400 249 470 l25 27 62 -57 c102 -96 156 -112 374 -113 118 0 148 3 224 25 182
54 419 199 608 374 252 232 355 548 238 725 -57 87 -198 157 -314 157 -107 0
-314 -53 -390 -100 l-33 -20 -4 55 c-6 71 -27 95 -83 95 -29 0 -56 -9 -91 -31z
m666 -141 c79 -40 97 -116 64 -276 -33 -159 -140 -330 -281 -444 -159 -130
-326 -232 -445 -272 -122 -41 -269 -39 -403 6 -72 23 -125 71 -125 111 0 66
109 212 332 445 197 204 354 349 407 376 101 51 198 73 321 75 70 1 94 -3 130
-21z"/>
<path d="M9921 1133 c-20 -17 -22 -33 -32 -208 -11 -203 -17 -223 -65 -211
-11 3 -30 -1 -42 -10 -17 -12 -21 -21 -16 -42 9 -36 22 -49 64 -59 34 -9 35
-11 41 -69 4 -32 7 -117 8 -187 1 -139 12 -180 59 -230 48 -51 99 -71 177 -72
113 0 177 53 126 104 -19 19 -23 19 -68 6 -111 -34 -131 -16 -140 132 -8 127
3 229 27 253 17 17 51 27 172 50 63 12 77 32 64 86 -8 29 4 29 -173 8 -40 -5
-54 -3 -58 7 -3 8 4 85 14 172 21 172 17 208 -21 244 -19 17 -84 43 -109 43
-4 0 -16 -8 -28 -17z"/>
<path d="M3871 1107 l-24 -12 2 -475 c1 -261 6 -491 11 -510 5 -20 24 -49 40
-65 29 -28 38 -30 115 -33 74 -4 85 -2 104 17 24 24 27 76 7 131 -18 50 -46
51 -81 3 -16 -21 -30 -40 -32 -43 -2 -2 -9 2 -14 10 -6 9 -8 62 -4 135 3 66
12 265 21 442 17 361 17 365 -50 397 -41 19 -63 20 -95 3z"/>
<path d="M550 1076 c-63 -12 -240 -81 -287 -111 -33 -22 -31 -69 3 -92 44 -28
109 -21 191 20 40 20 83 37 97 37 23 0 25 -4 31 -76 4 -42 5 -133 2 -203 -10
-244 -88 -399 -225 -445 -58 -20 -147 -20 -202 -1 -23 8 -54 15 -69 15 -28 -1
-61 -21 -61 -38 0 -21 80 -78 134 -96 110 -34 310 -15 402 39 84 49 155 161
188 295 19 77 33 344 28 513 l-4 118 -31 20 c-37 22 -97 23 -197 5z"/>
<path d="M7623 1070 c-27 -11 -178 -236 -264 -393 -35 -65 -76 -133 -90 -150
l-26 -31 -121 247 c-134 273 -139 280 -211 259 -34 -11 -53 -31 -158 -175 -66
-89 -133 -182 -150 -207 -45 -67 -119 -219 -138 -283 -15 -52 -15 -59 1 -92
16 -35 86 -95 111 -95 18 0 38 35 69 120 37 106 122 269 204 393 76 114 88
127 101 106 28 -44 76 -181 109 -314 45 -180 57 -205 112 -246 70 -50 84 -42
149 86 50 100 162 283 211 345 l20 25 -7 -216 c-4 -119 -4 -234 0 -257 8 -52
41 -87 95 -103 54 -16 60 -7 60 87 0 39 18 215 41 390 22 176 43 340 46 365 7
58 -6 82 -60 113 -54 31 -77 37 -104 26z"/>
<path d="M5800 1019 c-69 -10 -167 -23 -218 -28 -59 -6 -103 -16 -122 -28 -15
-10 -62 -63 -103 -118 -41 -55 -91 -116 -111 -134 -20 -19 -36 -41 -36 -48 0
-20 69 -60 137 -78 75 -21 120 -62 163 -148 45 -89 38 -151 -25 -225 -49 -58
-75 -66 -217 -63 -69 1 -129 -2 -132 -7 -13 -22 97 -83 182 -101 123 -26 220
-4 277 62 82 94 126 223 105 305 -16 64 -45 99 -156 187 -111 89 -110 79 -2
191 79 82 66 77 337 115 183 25 197 29 203 64 10 48 0 62 -49 69 -63 8 -90 7
-233 -15z"/>
<path d="M3425 831 c-10 -17 20 -47 81 -80 47 -25 54 -27 78 -14 37 19 33 62
-8 81 -40 20 -141 28 -151 13z"/>
<path d="M7894 828 c-8 -13 30 -46 96 -82 l46 -25 28 23 c42 33 29 61 -36 81
-61 18 -124 20 -134 3z"/>
<path d="M4428 815 c-100 -20 -135 -50 -152 -132 -11 -51 9 -102 94 -233 44
-69 83 -139 86 -157 8 -45 -10 -94 -52 -134 -34 -33 -38 -34 -110 -33 -41 0
-74 -4 -74 -9 0 -21 45 -70 76 -83 46 -19 131 -17 179 5 120 54 173 226 102
328 -15 21 -54 76 -87 122 -50 71 -60 91 -60 126 0 70 56 105 171 105 50 0
119 15 119 26 0 17 -40 59 -67 70 -40 17 -136 17 -225 -1z"/>
<path d="M8402 702 c-12 -2 -29 -13 -36 -25 -19 -29 -66 -390 -66 -499 0 -81
2 -88 25 -107 14 -11 40 -23 57 -26 50 -11 62 12 92 179 15 82 31 157 36 166
15 28 94 61 159 67 82 8 89 -5 98 -171 7 -143 13 -156 72 -156 27 0 44 7 62
26 21 22 24 37 27 115 6 147 -45 271 -130 315 -36 19 -97 22 -194 11 l-72 -9
5 25 c10 49 -66 100 -135 89z"/>
<path d="M11207 702 c-15 -2 -32 -12 -37 -22 -13 -25 -59 -348 -67 -472 -7
-115 4 -141 67 -158 51 -14 77 -1 85 43 45 248 54 290 70 307 25 27 117 60
170 60 59 0 65 -14 77 -174 5 -72 14 -137 20 -143 18 -22 86 -16 113 11 45 45
43 210 -5 320 -26 62 -79 111 -133 124 -42 11 -195 1 -219 -14 -4 -3 -8 10 -8
29 0 62 -55 98 -133 89z"/>
<path d="M9143 686 c-41 -19 -56 -69 -56 -196 -1 -201 90 -329 240 -338 58 -4
69 -1 114 27 l50 31 8 -23 c39 -102 49 -114 80 -97 36 19 50 98 57 314 6 181
5 202 -10 215 -19 16 -105 26 -123 14 -7 -5 -17 -39 -23 -76 -14 -91 -42 -162
-87 -221 -70 -91 -90 -86 -119 24 -15 57 -15 77 -4 172 7 59 10 114 7 123 -6
15 -36 30 -80 40 -12 2 -36 -2 -54 -9z"/>
<path d="M1175 679 c-99 -16 -223 -88 -250 -146 -23 -48 -17 -169 12 -235 43
-95 147 -182 257 -213 80 -23 206 -16 271 15 78 38 121 132 79 174 -23 24 -14
27 -138 -58 -47 -33 -68 -40 -114 -43 -68 -5 -125 23 -155 75 l-19 32 43 0
c32 0 61 11 123 47 123 72 186 148 186 223 0 80 -159 150 -295 129z m103 -126
c3 -29 -4 -37 -80 -98 -46 -36 -90 -64 -98 -63 -25 5 -24 64 1 104 29 48 105
96 144 92 26 -3 30 -8 33 -35z"/>
<path d="M2604 676 c-48 -21 -111 -111 -194 -273 -66 -131 -78 -148 -100 -148
-28 0 -32 11 -67 160 -16 70 -22 82 -52 102 -40 27 -82 29 -121 7 -27 -16 -70
-83 -124 -191 -15 -29 -31 -53 -36 -53 -11 0 -38 87 -47 150 -3 25 -12 57 -20
72 -13 28 -78 68 -108 68 -27 0 -73 -29 -80 -49 -8 -27 57 -276 88 -338 42
-82 121 -143 185 -143 46 0 73 29 119 127 l43 94 56 -60 c65 -70 165 -126 206
-116 73 18 203 185 278 355 46 104 59 180 38 219 -16 31 -26 33 -64 17z"/>
<path d="M2991 678 c-67 -10 -170 -59 -215 -101 -90 -85 -62 -269 61 -390 70
-70 156 -108 257 -114 113 -8 186 14 243 72 47 46 55 83 27 123 -21 30 -34 28
-90 -17 -127 -100 -234 -108 -307 -22 -36 43 -34 51 9 51 81 0 252 119 293
203 28 58 26 80 -10 121 -51 59 -164 90 -268 74z m93 -94 c9 -4 16 -18 16 -34
0 -23 -14 -39 -81 -91 -90 -72 -100 -76 -119 -54 -10 12 -10 23 4 58 31 81
123 143 180 121z"/>
<path d="M10621 678 c-29 -4 -82 -22 -117 -38 -128 -61 -165 -126 -144 -248
15 -88 47 -147 114 -210 75 -71 148 -103 252 -109 111 -8 184 14 241 72 47 46
55 83 27 123 -21 30 -35 28 -85 -14 -92 -77 -179 -101 -252 -70 -32 13 -87 68
-87 87 0 5 18 9 41 9 74 0 225 102 281 189 36 58 36 91 -3 135 -51 59 -164 90
-268 74z m107 -125 c3 -28 -4 -37 -81 -97 -47 -36 -89 -66 -95 -66 -5 0 -15 7
-22 15 -10 12 -9 23 4 58 27 70 103 129 161 124 26 -2 30 -6 33 -34z"/>
<path d="M3490 551 c-15 -28 -13 -64 12 -266 20 -168 24 -182 49 -207 35 -35
96 -39 124 -8 17 19 18 30 6 198 -15 213 -22 243 -62 276 -39 33 -112 37 -129
7z"/>
<path d="M7973 558 c-6 -7 -13 -26 -16 -43 -7 -40 39 -398 54 -424 33 -52 130
-56 149 -6 10 25 -15 350 -31 408 -7 26 -21 44 -42 57 -36 22 -100 26 -114 8z"/>
</g>
</svg>
